HIERARCHY
ROOT Hips
{
    OFFSET 0.000000 0.000000 0.000000
    CHANNELS 6 Xposition Yposition Zposition Zrotation Xrotation Yrotation
    JOINT Spine
    {
        OFFSET -0.000000 14.517291 0.000000
        CHANNELS 3 Zrotation Xrotation Yrotation
        JOINT Spine1
        {
            OFFSET -0.000000 37.558300 0.000000
            CHANNELS 3 Zrotation Xrotation Yrotation
            JOINT Neck
            {
                OFFSET -0.000000 37.404057 3.400369
                CHANNELS 3 Zrotation Xrotation Yrotation
                JOINT Head
                {
                    OFFSET -0.000000 24.785618 -3.540803
                    CHANNELS 3 Zrotation Xrotation Yrotation
                    End Site
                    {
                        OFFSET -0.000000 35.408028 0.000000
                    }
                }
            }
            JOINT LeftShoulder
            {
                OFFSET 6.992933 33.973492 -0.192664
                CHANNELS 3 Zrotation Xrotation Yrotation
                JOINT LeftArm
                {
                    OFFSET 21.527611 0.000000 0.000000
                    CHANNELS 3 Zrotation Xrotation Yrotation
                    JOINT LeftForeArm
                    {
                        OFFSET 56.353916 0.000000 0.000000
                        CHANNELS 3 Zrotation Xrotation Yrotation
                        JOINT LeftHand
                        {
                            OFFSET 47.774071 0.000000 0.000000
                            CHANNELS 3 Zrotation Xrotation Yrotation
                            End Site
                            {
                                OFFSET 26.556021 0.000000 0.000000
                            }
                        }
                    }
                }
            }
            JOINT RightShoulder
            {
                OFFSET -7.065357 33.973492 -0.192664
                CHANNELS 3 Zrotation Xrotation Yrotation
                JOINT RightArm
                {
                    OFFSET -21.527611 0.000000 0.000000
                    CHANNELS 3 Zrotation Xrotation Yrotation
                    JOINT RightForeArm
                    {
                        OFFSET -56.353916 0.000000 0.000000
                        CHANNELS 3 Zrotation Xrotation Yrotation
                        JOINT RightHand
                        {
                            OFFSET -47.774071 0.000000 0.000000
                            CHANNELS 3 Zrotation Xrotation Yrotation
                            End Site
                            {
                                OFFSET -26.556021 0.000000 0.000000
                            }
                        }
                    }
                }
            }
        }
    }
    JOINT LeftUpLeg
    {
        OFFSET 17.704014 0.000000 0.000000
        CHANNELS 3 Zrotation Xrotation Yrotation
        JOINT LeftLeg
        {
            OFFSET -0.000000 -81.181816 0.000000
            CHANNELS 3 Zrotation Xrotation Yrotation
            JOINT LeftFoot
            {
                OFFSET -0.000000 -62.821102 0.000000
                CHANNELS 3 Zrotation Xrotation Yrotation
                JOINT LeftToeBase
                {
                    OFFSET -0.000000 -11.507608 26.556021
                    CHANNELS 3 Zrotation Xrotation Yrotation
                    End Site
                    {
                        OFFSET -0.000000 0.000000 7.081605
                    }
                }
            }
        }
    }
    JOINT RightUpLeg
    {
        OFFSET -17.704014 0.000000 0.000000
        CHANNELS 3 Zrotation Xrotation Yrotation
        JOINT RightLeg
        {
            OFFSET -0.000000 -81.181816 0.000000
            CHANNELS 3 Zrotation Xrotation Yrotation
            JOINT RightFoot
            {
                OFFSET -0.000000 -62.821102 0.000000
                CHANNELS 3 Zrotation Xrotation Yrotation
                JOINT RightToeBase
                {
                    OFFSET -0.000000 -11.507608 26.556021
                    CHANNELS 3 Zrotation Xrotation Yrotation
                    End Site
                    {
                        OFFSET -0.000000 0.000000 7.081605
                    }
                }
            }
        }
    }
}
MOTION
Frames:    7
Frame Time:    0.008333
1.116275    153.422241    -27.358738    -2.841317    -0.568994    -4.556219    3.561640    -0.535888    9.423512    -3.676552    0.536001    3.152516    7.574227    -2.913807    -3.978470    3.841257    7.631431    -5.173359    3.033257    3.252120    -7.348485    -45.883236    13.484044    -37.786327    -4.726144    -22.169466    -124.800697    -1.071897    -30.270878    -2.626769    -15.964631    -0.951138    5.164674    31.124355    -18.776522    77.359428    4.304334    -16.808485    16.107922    11.716086    -12.956605    42.678631    18.016191    -25.944559    16.199038    -14.622466    17.008007    5.783249    3.004253    6.705482    45.045071    0.000000    0.000000    0.000000    -0.209469    5.482118    -24.430134    3.212444    31.169771    -9.416785    5.960361    -29.240995    -11.052713    0.000000    0.000000    0.000000    
1.011574    153.473434    -27.517731    -2.859631    -0.542124    -4.529158    3.633803    -0.521723    9.404119    -3.752827    0.501323    3.145300    7.594419    -2.915266    -3.973070    3.780318    7.626664    -5.175869    3.030598    3.233279    -7.327133    -45.916119    13.516193    -37.788971    -4.727839    -22.134586    -124.851334    -1.138669    -30.248165    -2.660948    -15.967102    -1.000961    5.190065    31.123001    -18.794281    77.314964    4.341041    -16.778799    16.104427    11.707801    -12.931061    42.708672    17.986483    -25.987217    15.862293    -14.479666    16.864037    5.518146    2.551814    6.544792    45.082611    0.000000    0.000000    0.000000    -0.110337    5.406435    -24.384928    3.203736    31.119831    -9.395720    5.876023    -29.190388    -11.174138    0.000000    0.000000    0.000000    
0.907877    153.522385    -27.675745    -2.885219    -0.520569    -4.503867    3.749141    -0.532160    9.399651    -3.902625    0.524065    3.144964    7.677467    -2.907717    -3.964751    3.704888    7.572364    -5.185232    3.097439    3.235996    -7.308262    -45.968330    13.492373    -37.849640    -4.748639    -22.051252    -124.885307    -1.102934    -30.211393    -2.669363    -15.899469    -1.012315    5.193461    31.104433    -18.862122    77.304619    4.364906    -16.756826    16.092804    11.695747    -12.911977    42.744961    17.945745    -26.026541    15.553775    -14.302711    16.718777    5.269566    2.107733    6.385825    45.029606    0.000000    0.000000    0.000000    -0.016884    5.326880    -24.332644    3.207863    31.098867    -9.361505    5.764192    -29.135195    -11.310270    0.000000    0.000000    0.000000    
0.805702    153.573868    -27.825510    -2.902786    -0.507670    -4.473555    3.795617    -0.510676    9.381060    -3.921477    0.490859    3.137879    7.667934    -2.895947    -3.962654    3.644590    7.533331    -5.183976    3.066463    3.241276    -7.285861    -46.004070    13.477732    -37.868298    -4.760317    -21.982908    -124.930428    -1.125286    -30.174175    -2.702056    -15.922294    -1.015599    5.221153    31.066326    -18.890808    77.270523    4.336358    -16.769981    16.103224    11.718282    -12.912498    42.750698    17.872730    -26.046801    15.166596    -14.132090    16.528933    5.102695    1.705541    6.211319    44.950920    0.000000    0.000000    0.000000    0.063024    5.260299    -24.284313    3.231237    31.070408    -9.408486    5.678878    -29.062187    -11.384082    0.000000    0.000000    0.000000    
0.707030    153.618408    -27.980915    -2.913210    -0.491903    -4.447973    3.762921    -0.460089    9.402920    -3.919499    0.400374    3.142977    7.874079    -2.928589    -3.951069    3.423939    7.524442    -5.227076    3.181698    3.290221    -7.261382    -46.221569    13.380307    -37.984612    -4.785625    -21.691410    -124.956703    -1.098926    -29.949675    -2.699304    -15.791652    -1.054744    5.189569    30.880476    -18.886465    77.175240    4.329609    -16.844364    16.128374    11.705886    -12.992871    42.752182    17.797733    -26.085335    14.790644    -13.971394    16.377914    4.922514    1.304946    5.918723    44.861042    0.000000    0.000000    0.000000    0.124656    5.180683    -24.261780    3.258555    31.067947    -9.422431    5.575626    -29.011484    -11.476313    0.000000    0.000000    0.000000    
0.608151    153.660721    -28.137661    -2.917807    -0.476105    -4.453883    3.792505    -0.462264    9.433406    -3.925294    0.454071    3.154934    7.880680    -3.025501    -3.950727    3.337056    7.510559    -5.240943    3.151400    3.239138    -7.209644    -46.253170    13.396828    -38.042522    -4.802606    -21.633877    -124.999382    -1.148427    -29.930134    -2.775119    -15.811727    -1.143170    5.181174    30.867554    -18.914818    77.128082    4.307568    -16.859655    16.155163    11.709487    -13.009780    42.710819    17.730803    -26.099953    14.414076    -13.812039    16.190645    4.739797    1.115836    5.729345    44.664505    0.000000    0.000000    0.000000    0.171655    5.093274    -24.200016    3.294072    31.081142    -9.467259    5.491756    -28.971682    -11.530507    0.000000    0.000000    0.000000    
0.512688    153.700439    -28.295656    -2.919637    -0.475144    -4.460915    3.822985    -0.414576    9.466292    -3.938021    0.419259    3.165235    7.857752    -2.992775    -3.968724    3.291860    7.426809    -5.254445    3.134979    3.245020    -7.204074    -46.271206    13.394748    -38.094349    -4.760051    -21.656391    -125.012817    -1.150338    -29.882015    -2.762526    -15.825069    -1.165038    5.205053    30.818254    -18.969355    77.063301    4.290474    -16.893305    16.179012    11.740477    -13.031996    42.698547    17.620453    -26.084698    14.021605    -13.572393    15.953905    4.481883    0.649263    5.389481    44.522171    0.000000    0.000000    0.000000    0.242768    5.104934    -24.171221    3.321923    30.908800    -9.466844    5.341130    -28.959547    -11.586371    0.000000    0.000000    0.000000    
